<svg width="17" height="13" viewBox="0 0 17 13" fill="none" xmlns="http://www.w3.org/2000/svg">
<path d="M16.0556 1.66961C15.473 1.92072 14.8402 2.10153 14.1873 2.17184C14.8603 1.77005 15.3725 1.13724 15.6136 0.383894C14.9908 0.755545 14.2877 1.02675 13.5545 1.16738C12.9618 0.534564 12.1181 0.142822 11.1839 0.142822C9.38593 0.142822 7.93951 1.5993 7.93951 3.38724C7.93951 3.63836 7.96964 3.88947 8.01986 4.13055C5.3279 3.98992 2.92723 2.70421 1.33013 0.735456C1.04888 1.2176 0.888168 1.77005 0.888168 2.37273C0.888168 3.49773 1.46071 4.49215 2.33459 5.07474C1.80223 5.05465 1.3 4.90398 0.868076 4.66291C0.868076 4.67296 0.868076 4.69305 0.868076 4.70309C0.868076 6.2801 1.98303 7.5859 3.46964 7.88724C3.19843 7.95755 2.90714 7.99773 2.61584 7.99773C2.40491 7.99773 2.20402 7.97764 2.00312 7.94751C2.41495 9.23322 3.61027 10.1674 5.03661 10.1975C3.92165 11.0714 2.52544 11.5837 1.0087 11.5837C0.737496 11.5837 0.48638 11.5736 0.22522 11.5435C1.6616 12.4676 3.36919 13 5.20736 13C11.1739 13 14.4384 8.058 14.4384 3.76894C14.4384 3.62831 14.4384 3.48769 14.4283 3.34706C15.0612 2.88501 15.6136 2.31247 16.0556 1.66961Z" fill="#12305B"/>
</svg>
